<svg width="104" height="33" viewBox="0 0 104 33" fill="none" xmlns="http://www.w3.org/2000/svg">
<path d="M39.6204 16.8754C40.3913 17.0215 41.0351 17.2947 41.5517 17.6923C42.0683 18.0926 42.3253 18.6498 42.3253 19.3666C42.3253 20.2294 42.0142 20.8705 41.3948 21.2898C40.7727 21.709 40.0721 21.92 39.2904 21.92C38.0949 21.92 37.1428 21.3925 36.4341 20.3376L37.5133 19.3044C37.9894 19.8967 38.5628 20.2186 39.2309 20.27C39.5799 20.2917 39.8963 20.2322 40.1776 20.0915C40.4589 19.9508 40.5996 19.7263 40.5996 19.4126C40.5996 18.8418 40.1479 18.4794 39.2444 18.3225C37.516 18.0412 36.6451 17.2676 36.6342 15.9936C36.6342 15.2552 36.9264 14.6736 37.5106 14.2463C38.0949 13.8216 38.7873 13.6079 39.5907 13.6079C40.5969 13.6079 41.4435 13.9433 42.1306 14.6141L41.1514 15.642C40.6293 15.2471 40.1208 15.0496 39.6204 15.0496C39.2958 15.0496 39.001 15.1253 38.7386 15.2768C38.4763 15.4283 38.3491 15.6636 38.36 15.9855C38.36 16.0585 38.3681 16.1262 38.3843 16.1884C38.4005 16.2506 38.4276 16.3074 38.4709 16.3588C38.5114 16.4102 38.5493 16.4561 38.5818 16.4913C38.6142 16.5265 38.6629 16.5643 38.7305 16.5995C38.7981 16.6374 38.8522 16.6644 38.8874 16.6861C38.9253 16.7077 38.9875 16.7266 39.0767 16.7483C39.166 16.7699 39.2255 16.7834 39.258 16.7943C39.2904 16.8051 39.3553 16.8213 39.4554 16.8402C39.5555 16.8646 39.6096 16.8754 39.6204 16.8754Z" fill="#1F212A"/>
<path d="M50.4429 14.8977L49.4746 16.0283C48.893 15.4738 48.2114 15.1952 47.4297 15.1952C46.7643 15.1844 46.1936 15.4089 45.7175 15.866C45.2415 16.3231 44.998 16.9534 44.9872 17.7567C44.9872 18.4654 45.2036 19.0632 45.6364 19.5473C46.0692 20.0315 46.6723 20.2722 47.4432 20.2722C48.1303 20.2722 48.8227 19.9747 49.5206 19.3769L50.5025 20.4886C49.5936 21.4435 48.5739 21.9222 47.4432 21.9222C46.1314 21.9222 45.1062 21.5165 44.3678 20.7023C43.6266 19.8882 43.2588 18.9009 43.2588 17.7378C43.2696 16.5855 43.651 15.6036 44.4002 14.7895C45.1495 13.9753 46.1665 13.5641 47.4459 13.5533C48.5685 13.5452 49.5666 13.9969 50.4429 14.8977Z" fill="#1F212A"/>
<path d="M59.6718 17.7246C59.6718 18.9012 59.2742 19.8939 58.4816 20.7027C57.6891 21.5141 56.691 21.9172 55.4846 21.9172C54.2891 21.9172 53.291 21.5006 52.4876 20.6702C51.6843 19.8398 51.2812 18.8579 51.2812 17.7219C51.2812 16.5858 51.6843 15.6094 52.4876 14.7898C53.291 13.9702 54.2891 13.5591 55.4846 13.5591C56.691 13.5591 57.6891 13.9567 58.4816 14.7546C59.2769 15.5553 59.6718 16.5426 59.6718 17.7246ZM53.7589 15.8636C53.2612 16.2991 53.0124 16.9185 53.0124 17.7273C53.0124 18.5334 53.2612 19.1609 53.7589 19.6045C54.2566 20.0481 54.8328 20.2726 55.4873 20.2726C56.1527 20.2726 56.7289 20.0508 57.2157 19.6045C57.7026 19.1609 57.9461 18.5334 57.9461 17.7273C57.9461 16.9212 57.7026 16.2991 57.2157 15.8636C56.7289 15.4282 56.1527 15.2118 55.4873 15.2118C54.83 15.2118 54.2539 15.4282 53.7589 15.8636Z" fill="#1F212A"/>
<path d="M61.4002 13.6729H62.8906L63.0096 14.5871C63.3747 13.8947 64.0104 13.5322 64.9192 13.4971C65.5954 13.4971 66.2094 13.681 66.7585 14.0435L66.0282 15.5041C65.5954 15.2742 65.1654 15.1579 64.7353 15.1525C64.3079 15.147 63.9319 15.2931 63.61 15.5906C63.2882 15.8882 63.1259 16.2804 63.1259 16.77V21.7415H61.3975V13.6729H61.4002Z" fill="#1F212A"/>
<path d="M71.3111 20.4298C72.2849 20.4298 73.0233 20.0646 73.5318 19.3316L74.8004 20.1485C73.9024 21.2981 72.7393 21.8742 71.3111 21.8742C70.0101 21.8742 68.9984 21.4631 68.2735 20.6435C67.5486 19.8239 67.1916 18.8583 67.2024 17.752C67.2024 16.643 67.5703 15.68 68.3033 14.8605C69.039 14.0409 70.0344 13.6243 71.2922 13.6135C72.4444 13.6027 73.3912 13.9706 74.1296 14.7171C74.8707 15.4636 75.2386 16.3914 75.2386 17.5031C75.2386 17.7926 75.2169 18.1009 75.1764 18.4336H68.9281C69.0336 18.9881 69.296 19.4615 69.7125 19.8483C70.1372 20.2351 70.6673 20.4298 71.3111 20.4298ZM68.966 16.9865H73.5643C73.448 16.3887 73.1937 15.9208 72.8042 15.58C72.412 15.2391 71.917 15.0633 71.3138 15.0525C70.6484 15.0633 70.1182 15.2391 69.7287 15.58C69.3365 15.9208 69.0823 16.3887 68.966 16.9865Z" fill="#1F212A"/>
<path d="M77.0669 10.6299H78.7953V13.7053C79.8448 13.378 80.7915 13.3564 81.6327 13.6458C82.4767 13.9352 83.1556 14.4573 83.6776 15.2146C84.197 15.972 84.4566 16.8105 84.4566 17.7275C84.4674 18.8473 84.0915 19.8238 83.326 20.6569C82.5632 21.49 81.5327 21.9038 80.2397 21.9038C79.055 21.9038 77.9974 21.7442 77.0696 21.4278V10.6299H77.0669ZM80.2397 20.4594C81.0106 20.4594 81.6219 20.1835 82.0709 19.629C82.5199 19.0772 82.739 18.4551 82.7282 17.7681C82.7174 16.7483 82.3062 15.972 81.4921 15.4419C80.6779 14.9117 79.7799 14.8792 78.7953 15.3526V20.3133C79.1659 20.3918 79.6474 20.4378 80.2397 20.4594Z" fill="#FEDA14"/>
<path d="M89.8174 20.4298C90.7912 20.4298 91.5296 20.0646 92.0381 19.3316L93.3067 20.1485C92.4087 21.2981 91.2456 21.8742 89.8174 21.8742C88.5164 21.8742 87.5048 21.4631 86.7799 20.6435C86.055 19.8239 85.6979 18.8583 85.7087 17.752C85.7087 16.643 86.0766 15.68 86.8096 14.8605C87.5453 14.0409 88.5407 13.6243 89.7985 13.6135C90.9508 13.6027 91.8975 13.9706 92.6359 14.7171C93.3771 15.4636 93.7449 16.3914 93.7449 17.5031C93.7449 17.7926 93.7233 18.1009 93.6827 18.4336H87.4344C87.5399 18.9881 87.8023 19.4615 88.2189 19.8483C88.6408 20.2351 89.171 20.4298 89.8174 20.4298ZM87.4696 16.9865H92.0679C91.9516 16.3887 91.6973 15.9208 91.3078 15.58C90.9156 15.2391 90.4206 15.0633 89.8174 15.0525C89.152 15.0633 88.6219 15.2391 88.2324 15.58C87.8402 15.9208 87.5859 16.3887 87.4696 16.9865Z" fill="#FEDA14"/>
<path d="M99.1573 20.4298C100.131 20.4298 100.869 20.0646 101.378 19.3316L102.647 20.1485C101.749 21.2981 100.585 21.8742 99.1573 21.8742C97.8562 21.8742 96.8446 21.4631 96.1197 20.6435C95.3948 19.8239 95.0378 18.8583 95.0486 17.752C95.0486 16.643 95.4164 15.68 96.1495 14.8605C96.8852 14.0409 97.8806 13.6243 99.1384 13.6135C100.291 13.6027 101.237 13.9706 101.976 14.7171C102.717 15.4636 103.085 16.3914 103.085 17.5031C103.085 17.7926 103.063 18.1009 103.023 18.4336H96.7743C96.8798 18.9881 97.1422 19.4615 97.5587 19.8483C97.9807 20.2351 98.5108 20.4298 99.1573 20.4298ZM96.8095 16.9865H101.408C101.291 16.3887 101.037 15.9208 100.648 15.58C100.255 15.2391 99.7605 15.0633 99.1573 15.0525C98.4919 15.0633 97.9617 15.2391 97.5722 15.58C97.18 15.9208 96.9258 16.3887 96.8095 16.9865Z" fill="#FEDA14"/>
<path d="M13.5742 29.195C13.7467 29.2954 13.8926 29.3769 14.0082 29.4395C14.3873 29.2329 15.1113 28.8178 16.0115 28.1924L14.2641 28.9259C14.031 29.0244 13.8017 29.1116 13.5742 29.195Z" fill="white"/>
<path d="M16.3316 28.0579L16.2785 28.0029C16.1875 28.0674 16.0985 28.1299 16.0132 28.1906L16.3316 28.0579Z" fill="white"/>
<path d="M15.7131 15.8709C14.7257 7.64166 12.7717 4.17711 11.0678 2.76514C9.31281 1.31147 6.55899 2.64763 6.65375 4.92385C6.85465 9.79658 15.7131 15.8709 15.7131 15.8709Z" fill="#FEDA14"/>
<path d="M12.4932 20.4956C12.0422 20.4956 11.6119 20.543 11.2083 20.6321C10.9107 21.0699 10.6188 21.6024 10.3687 22.2279C10.5866 22.2089 10.8065 22.1976 11.0263 22.1976C13.3329 22.1976 15.5029 23.3044 16.8694 25.1314C17.2693 24.5666 17.5631 23.9393 17.7507 23.2798C16.5643 21.538 14.6065 20.4956 12.4932 20.4956Z" fill="#FEDA14"/>
<path d="M12.5122 14.6218C11.6802 14.2541 10.8065 13.9661 9.92331 13.7614C8.96999 13.5377 7.86884 13.2913 6.90604 13.5889C6.89657 13.5889 6.89278 13.5889 6.88709 13.5927C5.55661 14.0115 5.27422 15.6472 6.30524 16.5683C7.34764 17.5026 8.83543 18.0011 10.1507 18.3763C11.0112 18.6227 11.8849 18.8085 12.7738 18.9487C12.7738 18.9487 12.4668 19.1553 12.0498 19.5874C12.1976 19.5779 12.3436 19.5628 12.4952 19.5628C14.6141 19.5628 16.5984 20.4763 17.9744 22.0437C18.0768 20.6317 17.7091 19.1762 16.8069 17.9442C15.7171 16.464 14.182 15.3667 12.5122 14.6218Z" fill="#FEDA14"/>
<path d="M11.0263 23.1284C10.689 23.1284 10.3573 23.1587 10.0332 23.2118C9.90811 23.6648 9.80766 24.1538 9.74701 24.6901C9.74512 24.6996 9.74512 24.711 9.74512 24.7223C11.6082 24.874 13.3139 25.7174 14.5591 27.1104C14.6804 27.0459 14.8017 26.9796 14.923 26.9133C15.4328 26.629 15.8801 26.2765 16.2648 25.8803C15.0822 24.1708 13.1187 23.1284 11.0263 23.1284Z" fill="#FEDA14"/>
<path d="M9.9274 28.5652C9.9274 28.5652 11.7317 28.334 13.6725 27.519C12.6092 26.4311 11.2048 25.7716 9.67912 25.6465C9.65448 26.524 9.72271 27.4925 9.9274 28.5652Z" fill="#FEDA14"/>
<path d="M21.7344 10.8521C21.3572 10.8521 21.0426 11.1155 20.9611 11.47C20.3717 11.6728 19.9225 12.0082 19.5794 12.3702C19.1758 11.9912 18.6242 11.8073 17.9192 11.9533C17.6842 12.0025 17.4871 12.0727 17.3051 12.1523C17.6273 11.3828 18.2471 10.5147 19.4506 9.94806C19.5908 10.075 19.7766 10.1546 19.9812 10.1546C20.4191 10.1546 20.7754 9.80023 20.7754 9.36052C20.7754 8.92272 20.4209 8.56641 19.9812 8.56641C19.5643 8.56641 19.2269 8.8886 19.1947 9.29608C17.0758 10.274 16.4902 12.1049 16.3272 13.1094C15.8268 14.3527 16.7271 16.2081 17.3582 17.1918C17.851 17.9613 18.9521 18.0674 19.5472 17.3737C20.5138 16.2517 20.6825 14.1783 20.0078 12.9293C20.2807 12.6204 20.6446 12.3266 21.126 12.1466C21.2719 12.3228 21.488 12.4365 21.7344 12.4365C22.1722 12.4365 22.5285 12.0821 22.5285 11.6424C22.5285 11.2065 22.1722 10.8521 21.7344 10.8521Z" fill="#FEDA14"/>
<path d="M8.15526 25.6022L8.17611 24.9199C8.03586 24.7721 7.89371 24.6205 7.75536 24.4651C3.75634 20.0188 2.15863 14.8371 3.00392 9.05652L6.0136 8.04066C5.80702 7.62749 5.63076 7.21243 5.49241 6.79736L1.80232 8.04255L1.73598 8.44056C0.428249 16.3874 3.76013 22.0505 6.78687 25.4013C7.24932 25.913 7.71556 26.385 8.178 26.8228C8.15336 26.4096 8.14389 26.0021 8.15526 25.6022Z" fill="#1F212A"/>
<path d="M14.0078 30.9446L14.2997 30.8044C14.4475 30.7323 17.9689 29.0114 21.2288 25.4029C24.2555 22.052 27.5874 16.389 26.2797 8.4421L26.2133 8.04409L14.1102 3.9541C14.3944 4.43929 14.6522 4.9946 14.8266 5.61625L25.0136 9.05806C25.857 14.8367 24.2593 20.0184 20.2622 24.4666C18.8919 25.9904 17.4572 27.1654 16.2783 28.0051L16.3314 28.06L16.013 28.1946C15.1127 28.82 14.3888 29.2351 14.0097 29.4417C13.8941 29.3791 13.7482 29.2976 13.5757 29.1972C12.9578 29.4227 12.3722 29.5971 11.8643 29.7279C12.9294 30.4215 13.6515 30.774 13.7178 30.8063L14.0078 30.9446Z" fill="#1F212A"/>
<path d="M27.7052 8.20651L27.4986 6.95184L14.01 2.39562C13.6158 1.91991 13.2481 1.53896 12.8918 1.24519C11.9953 0.500351 10.6004 0 9.42152 0C8.02661 0 6.67149 0.578057 5.7049 1.58634C4.76864 2.5624 4.28345 3.8436 4.34031 5.19683C4.34599 5.34655 4.36305 5.49628 4.38011 5.6479L0.517553 6.95184L0.310969 8.20651C-0.797763 14.9442 1.07097 21.2251 5.71438 26.3689C6.63169 27.3847 7.56985 28.2584 8.45683 28.9976L8.4284 28.8536C8.35828 28.4878 8.30711 28.1258 8.26162 27.7657C7.61912 27.1914 6.95957 26.547 6.31139 25.8287C1.84045 20.8726 0.0399456 14.8248 1.10698 8.33729L1.23396 7.56023L5.3069 6.18426C5.24246 5.91513 5.19318 5.6479 5.16286 5.38067C5.15527 5.30865 5.1458 5.23473 5.1439 5.16271C5.09652 4.03313 5.50211 2.96041 6.28485 2.14544C7.10171 1.29447 8.24456 0.807384 9.41963 0.807384C10.409 0.807384 11.6238 1.2433 12.3762 1.86494C12.634 2.07911 12.9012 2.34445 13.1855 2.67043L13.5532 3.09118L14.0062 3.24659L26.7784 7.56212L26.9054 8.33918C27.9724 14.8267 26.1719 20.8745 21.6991 25.8306C18.3577 29.5302 14.7264 31.306 14.5748 31.38L14.0062 31.6548L13.4376 31.38C13.3599 31.3421 12.3876 30.8663 11.0117 29.9244C10.4886 30.0324 10.1531 30.0779 10.1209 30.0817L9.88207 30.112C11.6617 31.4103 12.9941 32.0623 13.087 32.1077L14.0062 32.5512L14.9254 32.1077C15.0846 32.0319 18.8524 30.1878 22.298 26.3727C26.9452 21.2251 28.8139 14.9442 27.7052 8.20651Z" fill="#1F212A"/>
</svg>
